# xmcd
#
# Track frame offsets: 
#        150
#        11705
#        29122
#        43526
#        59631
#        72036
#        88611
#        101285
#        118497
#        131745
#        153941
#
# Disc length: 2232 seconds
#
# Revision: 0
# Processed by: cddbd v1.5.1PL0 Copyright (c) Steve Scherf et al.
# Submitted via: ExactAudioCopy v0.95a5
#
DISCID=9808b60b
DTITLE=The Rounders - Honkytonkabilly
DYEAR=2003
DGENRE=Country
TTITLE0=The Rounders - 01 - That Ole Jukebox
TTITLE1=The Rounders - 02 - Cheatin' Man
TTITLE2=The Rounders - 03 - Do-Right Papa
TTITLE3=The Rounders - 04 - Heartaches and Sad Songs
TTITLE4=The Rounders - 05 - Pigeon Mtn. Blues
TTITLE5=The Rounders - 06 - Oh Honey
TTITLE6=The Rounders - 07 - Shot of Heartache
TTITLE7=The Rounders - 08 - Take Me To Texas
TTITLE8=The Rounders - 09 - Mom For A Wife
TTITLE9=The Rounders - 10 - Gypsy Rose
TTITLE10=The Rounders - 11 - Tennessee Border
EXTD=
EXTT0=
EXTT1=
EXTT2=
EXTT3=
EXTT4=
EXTT5=
EXTT6=
EXTT7=
EXTT8=
EXTT9=
EXTT10=
PLAYORDER=
